<?xml version="1.0" encoding="utf-8"?>
<!-- Generator: Adobe Illustrator 19.1.0, SVG Export Plug-In . SVG Version: 6.00 Build 0)  -->
<svg version="1.1" id="Capa_1" xmlns="http://www.w3.org/2000/svg" xmlns:xlink="http://www.w3.org/1999/xlink" x="0px" y="0px"
	 viewBox="0 0 155.9 76.5" style="enable-background:new 0 0 155.9 76.5;" xml:space="preserve">
<style type="text/css">
	.st0{fill:#BE3969;}
	.st1{fill:#BF3969;}
	.st2{fill:#9B214A;}
</style>
<g>
	<path class="st0" d="M96.4,65.1h-9.4l-2.2-7.8H71.3l-2.2,7.8h-9.4L72,24.9H84L96.4,65.1z M73.4,49.7h9.2L78,32.9L73.4,49.7z"/>
	<path class="st0" d="M97,46c0-6.9,3-10.9,9.9-10.9c2.4,0,5.5,0.4,7.5,0.8V23.7l8.7-1.2v42.6h-6.8l-0.9-2.4c-2.1,1.3-5.9,3-9.1,3
		c-6,0-9.3-3.7-9.3-10.9V46z M114.3,43.4c-1.5-0.4-3.7-0.7-5.6-0.7c-2.3,0-3.1,1.4-3.1,3.3v8.9c0,2.1,0.8,3.3,3.1,3.3
		c2,0,4.3-1.2,5.6-2.3V43.4z"/>
	<path class="st0" d="M144.2,65.1l-0.6-1.9c-3.4,1.9-6.4,2.5-8.4,2.5c-5.4,0-7.7-3.9-7.7-8.9c0-5.9,2.7-8.3,8.8-8.3h6.3v-2.2
		c0-3-0.5-4-5.2-4c-2.6,0-5.2,0.3-8,0.8l-1.1-6.5c2.8-0.8,7.2-1.4,10.6-1.4c10.2,0,12.4,3.1,12.4,11.2v18.8H144.2z M142.7,54.6h-4.2
		c-1.9,0-2.6,0.5-2.6,2.1c0,1.6,0.7,2.3,2.4,2.3c1.8,0,3.1-0.4,4.4-1V54.6z"/>
</g>
<g>
	<g>
		<path class="st1" d="M33,65.3c-0.1,0-0.1,0-0.2,0l-16.3,0C9.7,65.2,4.1,59.9,3.7,53.2l0-0.2v-1.6C3.6,36,13.7,16.5,22,10.7
			c4.3-3,9.4-3.2,14.5-0.6C46.5,15.4,54,30.2,54,40c0,6.2-2.9,10.6-7.9,12.6c0,2.5-0.8,4.9-2.2,7.1C41.5,63.2,37.4,65.3,33,65.3z
			 M32.8,59.7c2.6,0,5-1.2,6.4-3.2c0.6-0.8,1-1.8,1.1-2.7c-0.3,0-0.6,0-1,0h-15c-1.5,0-2.5-0.3-2.7-0.3c-2.1-0.6-3.9-1.9-4.9-3.8
			c-0.9-1.7-1.1-3.7-0.5-5.6c0.1-0.3,0.2-0.6,0.3-0.8L23,28.7c1.3-3,4.2-4.9,7.5-4.9c3.3,0,6.3,1.7,7.7,4.7l0.1,0.3L44.9,47
			c3.5-1.9,3.5-5.5,3.5-7c0-8.7-7.2-21-14.5-24.8c-3.2-1.7-6-1.6-8.6,0.2c-6.3,4.4-16,21.8-16,36.1v1.5c0.3,3.7,3.5,6.7,7.2,6.7
			L32.8,59.7z M23.2,48c0,0,0.5,0.1,1.2,0.1h14.9L33,30.8c-0.7-1.3-2-1.4-2.4-1.3c-0.4,0-1.8,0.1-2.4,1.5l-6.4,14.6
			c0,0.1-0.1,0.2-0.1,0.3c-0.1,0.4-0.1,0.8,0.1,1.2C22.1,47.5,22.6,47.8,23.2,48L23.2,48z"/>
	</g>
</g>
<g>
	<path class="st2" d="M39.7,55.8c2.3,0,4.4-0.4,6.2-1c0.1-0.7,0.2-1.5,0.2-2.2c-1.7,0.7-3.6,1-5.8,1.1
		C40.3,54.4,40.1,55.1,39.7,55.8z"/>
	<path class="st2" d="M44.9,47l-0.7-1.9c-1.1,0.6-2.6,1-4.9,1h-0.8l0.7,2h0C41.8,48.1,43.6,47.7,44.9,47z"/>
</g>
</svg>
